Coordinates
version=1
nRows=13
nColumns=40
inDegrees=yes

Units are S.I. units (second, meters, Newtons, ...)
Angles are in degrees.

endheader
time	pelvis_tilt	pelvis_list	pelvis_rotation	pelvis_tx	pelvis_ty	pelvis_tz	hip_flexion_r	hip_adduction_r	hip_rotation_r	knee_angle_r	knee_angle_r_beta	ankle_angle_r	subtalar_angle_r	mtp_angle_r	hip_flexion_l	hip_adduction_l	hip_rotation_l	knee_angle_l	knee_angle_l_beta	ankle_angle_l	subtalar_angle_l	mtp_angle_l	lumbar_extension	lumbar_bending	lumbar_rotation	arm_flex_r	arm_add_r	arm_rot_r	elbow_flex_r	pro_sup_r	wrist_flex_r	wrist_dev_r	arm_flex_l	arm_add_l	arm_rot_l	elbow_flex_l	pro_sup_l	wrist_flex_l	wrist_dev_l
     30.41500000	     -3.93604333	     -3.84245640	     -4.50865509	      1.12824551	      0.93066025	      0.44300715	     24.15383859	     -2.76512530	    -12.67940463	     13.02812899	     13.02812899	      1.44138665	      7.85892925	      7.34009312	      5.34238621	     -6.09450250	    -13.80630153	     16.04588229	     16.04588229	     14.36640519	     -8.33718235	     -6.35704137	    -10.25452199	      3.44032151	      0.94335997	    -11.77902995	    -13.55041180	      0.24913646	     33.07810781	     46.30556599	      0.00000000	      0.00000000	     23.37107194	    -18.73014321	     -5.36066213	     71.35620069	     47.10787385	      0.00000000	      0.00000000
     30.42835714	     -3.84131291	     -3.61275660	     -4.61547990	      1.12982755	      0.93001837	      0.44534055	     23.68835315	     -2.66162209	    -12.74070515	     13.38620526	     13.38620526	      1.54381666	      7.32720448	      6.08356288	      4.34054880	     -5.85672395	    -14.01225270	     15.29348030	     15.29348030	     14.42961652	     -8.12600226	     -6.76842829	    -10.06002938	      3.25879441	      0.91121074	    -11.74743613	    -13.57704651	      0.44281286	     33.35799602	     46.25046636	      0.00000000	      0.00000000	     23.06977724	    -18.61105767	     -5.86057679	     71.65700086	     47.18035618	      0.00000000	      0.00000000
     30.44171429	     -3.73093986	     -3.42432515	     -4.71099689	      1.13152921	      0.92932968	      0.44784052	     23.34045759	     -2.58949657	    -12.67550004	     14.28208350	     14.28208350	      2.05913186	      6.73076770	      5.46908975	      3.37031111	     -5.69008532	    -14.21702585	     14.67144696	     14.67144696	     14.69690302	     -7.78538256	     -6.75362721	     -9.84210705	      3.09112526	      0.94182634	    -11.60523006	    -13.58510409	      0.46295092	     33.48377356	     46.24083847	      0.00000000	      0.00000000	     22.83834705	    -18.56574195	     -5.95376563	     71.63024559	     47.18940072	      0.00000000	      0.00000000
     30.45507143	     -3.58486498	     -3.21406937	     -4.76632199	      1.13351871	      0.92860602	      0.45030395	     22.99229543	     -2.57827321	    -12.33149048	     15.39326972	     15.39326972	      2.57763908	      5.84671865	      4.51465991	      2.32126078	     -5.48143624	    -14.45974683	     13.98917450	     13.98917450	     15.00943500	     -7.37532573	     -6.68515931	     -9.65863649	      3.02412113	      0.93030057	    -11.37031056	    -13.56420778	      0.48862381	     33.72853124	     46.22581661	      0.00000000	      0.00000000	     22.42849772	    -18.46591906	     -6.16330695	     71.60349074	     47.20589195	      0.00000000	      0.00000000
     30.46842857	     -3.40622599	     -3.10325972	     -4.79201198	      1.13558923	      0.92784919	      0.45293136	     22.63517424	     -2.48641772	    -11.86461051	     16.59363057	     16.59363057	      3.12326339	      4.91158894	      3.53006385	      1.33168767	     -5.41505402	    -14.58824735	     13.50949735	     13.50949735	     15.36903840	     -7.05089384	     -6.55196550	     -9.49686102	      3.02655731	      0.89628451	    -11.04746959	    -13.63233447	      0.48981392	     34.00392539	     46.21275958	      0.00000000	      0.00000000	     21.93970272	    -18.36352413	     -6.38899761	     71.51635005	     47.22077339	      0.00000000	      0.00000000
     30.48178571	     -3.21863800	     -3.01828749	     -4.78735850	      1.13776062	      0.92709723	      0.45574073	     22.14441585	     -2.24715123	    -10.87474028	     17.41121796	     17.41121796	      2.78503912	      3.02112082	      0.43483130	      0.47991265	     -5.44808461	    -14.83525343	     13.36917557	     13.36917557	     16.23845763	     -6.39447019	     -5.41536606	     -9.34564977	      3.05659914	      0.51807149	    -10.54541563	    -13.72571622	      0.79317293	     34.78513844	     46.14163645	      0.00000000	      0.00000000	     20.90373772	    -18.07937009	     -7.70189821	     71.88431424	     47.33111954	      0.00000000	      0.00000000
     30.49514286	     -3.03654918	     -2.95799512	     -4.76113878	      1.13982874	      0.92631340	      0.45848397	     21.92090282	     -2.18898194	    -10.47092599	     18.72792878	     18.72792878	      3.52429704	      2.35591809	     -0.27248571	     -0.29644712	     -5.50323988	    -14.88581091	     13.28460198	     13.28460198	     16.63683510	     -6.24642449	     -5.20345145	     -9.21133496	      3.14509252	      0.51197907	    -10.00231101	    -13.81995480	      0.81651073	     35.00430205	     46.13167764	      0.00000000	      0.00000000	     20.32624226	    -17.97303843	     -7.70033166	     71.53525328	     47.32423893	      0.00000000	      0.00000000
     30.50850000	     -2.84139896	     -2.96116578	     -4.71097399	      1.14181473	      0.92564944	      0.46133871	     21.68358926	     -2.03191780	     -9.91474241	     19.91271384	     19.91271384	      4.22153071	      1.42422917	     -0.87193031	     -0.91136335	     -5.68271084	    -14.85799579	     13.52892226	     13.52892226	     17.09477503	     -6.23778510	     -4.82239642	     -9.11668170	      3.30322569	      0.43755319	     -9.33451452	    -13.93050346	      0.80030339	     35.32607858	     46.12096257	      0.00000000	      0.00000000	     19.64096914	    -17.83872128	     -7.79253818	     71.09066784	     47.32132919	      0.00000000	      0.00000000
     30.52185714	     -2.75988971	     -3.01651779	     -4.62519734	      1.14358906	      0.92502210	      0.46431400	     21.54534312	     -1.75187999	     -9.16111216	     20.89811905	     20.89811905	      4.78718411	      0.11421402	     -1.44452126	     -1.09427072	     -6.03503347	    -14.78612581	     14.36495672	     14.36495672	     17.88987090	     -6.20301931	     -3.68531823	     -8.91773935	      3.54546819	      0.19516441	     -8.48504080	    -14.01917796	      0.81045991	     35.80814846	     46.09840911	      0.00000000	      0.00000000	     18.72165171	    -17.62257005	     -8.22479760	     70.43852889	     47.34016647	      0.00000000	      0.00000000
     30.53521429	     -2.50125754	     -3.12859278	     -4.53015890	      1.14535382	      0.92475615	      0.46729632	     21.16287626	     -1.52096630	     -8.88439944	     21.74624444	     21.74624444	      5.50484342	     -0.37305203	     -1.86957342	     -1.36289918	     -6.45883089	    -14.61224588	     15.36932179	     15.36932179	     18.31450863	     -6.52381082	     -3.29670260	     -8.97636236	      3.81122522	      0.19089307	     -7.62710615	    -14.14323229	      0.75775278	     36.17343303	     46.08962749	      0.00000000	      0.00000000	     18.00575726	    -17.35360608	     -8.30620915	     69.88373946	     47.33385581	      0.00000000	      0.00000000
     30.54857143	     -2.40483744	     -3.25128529	     -4.38377268	      1.14675462	      0.92452422	      0.47032217	     20.92705524	     -1.25897462	     -8.65584205	     22.42730660	     22.42730660	      6.12316310	     -0.95911963	     -2.15735708	     -1.07726111	     -7.01461075	    -14.30006763	     17.01574205	     17.01574205	     18.66973911	     -7.07100519	     -2.73998894	     -8.89179929	      4.12318829	      0.01539191	     -6.60812176	    -14.23922720	      0.65967478	     36.65222657	     46.07872106	      0.00000000	      0.00000000	     17.11590775	    -17.10468016	     -8.48982090	     68.95886897	     47.32824516	      0.00000000	      0.00000000
     30.56192857	     -2.00956345	     -3.23772542	     -4.36980308	      1.14842291	      0.92508533	      0.47338956	     20.23698417	     -1.15136216	     -8.44499569	     22.83566257	     22.83566257	      6.79184079	     -1.03602175	     -2.43351501	     -1.33661721	     -7.32707897	    -14.15379775	     18.25497668	     18.25497668	     18.57655358	     -7.58605559	     -2.69547998	     -9.13744442	      4.25659951	      0.33161372	     -5.66376228	    -14.36260370	      0.59232472	     36.99054547	     46.07519360	      0.00000000	      0.00000000	     16.15558392	    -16.48725971	     -8.31175195	     68.40385208	     47.29992083	      0.00000000	      0.00000000
     30.57528571	     -2.02701277	     -3.54705831	     -4.08957638	      1.14923373	      0.92493170	      0.47646763	     19.97255630	     -0.74465152	     -8.72754588	     23.18332577	     23.18332577	      7.35026906	     -1.23781238	     -2.62505690	     -0.12123175	     -8.27995449	    -13.33514300	     21.29501032	     21.29501032	     18.60074681	     -8.93517366	     -2.63120702	     -9.01295965	      4.75559072	     -0.09158223	     -4.38052226	    -14.50343327	      0.39442301	     37.59293265	     46.06781267	      0.00000000	      0.00000000	     15.44498822	    -16.48741000	     -8.49391136	     66.96846032	     47.28724139	      0.00000000	      0.00000000
